<svg width="261" height="72" viewBox="0 0 261 72" fill="none" xmlns="http://www.w3.org/2000/svg">
<path d="M74.6999 34.3C73.5999 34.3 72.5999 34.1 71.5999 33.8L60.9999 44.1001C61.2999 45.0001 61.3999 46 61.3999 47C61.3999 52.4 56.9999 56.9 51.5999 56.9C46.1999 56.9 41.6999 52.5 41.6999 47C41.6999 45.9 41.8999 44.8 42.1999 43.8L32.7999 34C30.8999 34.6 28.7999 34.5001 26.8999 33.9001L16.2999 44.1001C16.5999 45.0001 16.6999 46 16.6999 47C16.6999 50.7 14.5999 54.1 11.2999 55.8C17.6999 65.2 28.4999 71.4 40.7999 71.4C60.4999 71.4 76.4999 55.4001 76.4999 35.7001C76.4999 35.2001 76.4999 34.6001 76.4999 34.1001C75.8999 34.2001 75.2999 34.3 74.6999 34.3Z" fill="#41B883"/>
<path d="M6.89998 37.1C7.99998 37.1 8.99998 37.3 9.99998 37.6L20.6 27.3C20.3 26.4 20.2 25.4 20.2 24.4C20.2 19 24.6 14.5 30 14.5C35.4 14.5 39.9 18.9 39.9 24.4C39.9 25.5 39.7 26.6 39.4 27.6L48.8 37.4C50.7 36.8 52.8 36.9 54.7 37.5L65.3 27.2C65 26.3 64.9 25.3 64.9 24.3C64.9 20.6 67 17.2 70.3 15.5C63.9 6.2 53.1 0 40.8 0C21.1 0 5.09998 16 5.09998 35.7C5.09998 36.2 5.09998 36.8 5.09998 37.3C5.69998 37.2 6.29998 37.1 6.89998 37.1Z" fill="#41B883"/>
<path d="M74.7 17.6C73.7 17.6 72.8 17.8 72 18.2C69.5 19.3 67.9 21.7 67.9 24.5C67.9 25.8 68.3 27 68.9 28.1L55.3 41.2C54.2 40.5 52.9 40.1 51.6 40.1C50.3 40.1 49.1 40.4 48.1 41.1L35.8 28.2C36.5 27.1 37 25.8 37 24.4C37 20.6 33.9 17.5 30.1 17.5C26.3 17.5 23.3 20.6 23.3 24.4C23.3 25.7 23.7 26.9 24.3 28L10.6 41.2C9.5 40.5 8.2 40.1 6.9 40.1C6.3 40.1 5.8 40.2 5.3 40.3C2.2 41 0 43.8 0 47C0 50.8 3.1 53.9 6.9 53.9C7.9 53.9 8.8 53.7 9.6 53.3C12.1 52.2 13.7 49.8 13.7 47C13.7 45.7 13.3 44.5 12.7 43.4L26.3 30.2C27.4 30.9 28.7 31.3 30 31.3C31.3 31.3 32.5 31 33.5 30.3L45.8 43.2C45.1 44.3 44.6 45.6 44.6 47C44.6 50.8 47.7 53.9 51.5 53.9C55.3 53.9 58.3 50.8 58.3 47C58.3 45.7 57.9 44.5 57.3 43.4L70.9 30.2C72 30.9 73.3 31.3 74.6 31.3C75.2 31.3 75.7 31.2 76.2 31.1C79.3 30.4 81.5 27.6 81.5 24.4C81.6 20.7 78.5 17.6 74.7 17.6ZM8.4 50.5C7.9 50.7 7.4 50.8 6.9 50.8C4.8 50.8 3 49.1 3 46.9C3 45.1 4.2 43.6 6 43.2C6.3 43.1 6.6 43.1 6.9 43.1C7.9 43.1 8.9 43.5 9.7 44.3C10.4 45 10.8 46 10.8 47C10.7 48.5 9.8 49.9 8.4 50.5ZM27.3 27.1C26.6 26.4 26.2 25.4 26.2 24.4C26.2 22.3 27.9 20.5 30 20.5C32.1 20.5 33.9 22.2 33.9 24.4C33.9 25.5 33.5 26.4 32.7 27.2C32 27.9 31.1 28.3 30.1 28.3C29 28.3 28 27.9 27.3 27.1ZM51.5 50.8C49.4 50.8 47.6 49.1 47.6 46.9C47.6 45.8 48 44.9 48.8 44.1C49.5 43.4 50.4 43 51.4 43C52.4 43 53.4 43.4 54.2 44.2C54.9 44.9 55.3 45.9 55.3 46.9C55.4 49.1 53.7 50.8 51.5 50.8ZM75.6 28.2C75.3 28.3 75 28.3 74.7 28.3C73.7 28.3 72.7 27.9 71.9 27.1C71.2 26.4 70.8 25.4 70.8 24.4C70.8 22.9 71.7 21.5 73.1 20.9C73.6 20.7 74.1 20.6 74.6 20.6C76.7 20.6 78.4 22.3 78.4 24.5C78.6 26.2 77.4 27.8 75.6 28.2Z" fill="#41B883"/>
<path d="M97.2211 32.1875C95.7289 32.1875 94.5258 31.7227 93.6117 30.793C92.7054 29.8633 92.2523 28.5625 92.2523 26.8906V17.375C92.2523 15.375 92.6469 13.8438 93.4359 12.7812C94.2328 11.7188 95.5258 11.1875 97.3148 11.1875C98.2914 11.1875 99.1586 11.3672 99.9164 11.7266C100.682 12.0859 101.284 12.625 101.721 13.3438C102.159 14.0547 102.377 14.9531 102.377 16.0391V19.6016H98.2758V16.5547C98.2758 15.9375 98.1976 15.5234 98.0414 15.3125C97.8851 15.0938 97.6429 14.9844 97.3148 14.9844C96.932 14.9844 96.6742 15.125 96.5414 15.4062C96.4086 15.6797 96.3422 16.0469 96.3422 16.5078V26.832C96.3422 27.4023 96.4242 27.8047 96.5883 28.0391C96.7601 28.2734 97.0023 28.3906 97.3148 28.3906C97.6664 28.3906 97.9125 28.2461 98.0531 27.957C98.2015 27.668 98.2758 27.293 98.2758 26.832V23.1172H102.424V27.0195C102.424 28.832 101.967 30.1484 101.053 30.9688C100.139 31.7812 98.8617 32.1875 97.2211 32.1875ZM109.449 32.1875C107.8 32.1875 106.539 31.6914 105.664 30.6992C104.797 29.6992 104.363 28.2578 104.363 26.375V16.5781C104.363 14.8125 104.793 13.4727 105.652 12.5586C106.519 11.6445 107.785 11.1875 109.449 11.1875C111.113 11.1875 112.375 11.6445 113.234 12.5586C114.101 13.4727 114.535 14.8125 114.535 16.5781V26.375C114.535 28.2578 114.097 29.6992 113.222 30.6992C112.355 31.6914 111.097 32.1875 109.449 32.1875ZM109.484 28.3906C110.109 28.3906 110.422 27.7852 110.422 26.5742V16.5078C110.422 15.4922 110.117 14.9844 109.507 14.9844C108.82 14.9844 108.476 15.5039 108.476 16.543V26.5977C108.476 27.2383 108.554 27.6992 108.711 27.9805C108.867 28.2539 109.125 28.3906 109.484 28.3906ZM116.919 32V11.375H123.2L124.935 23.9492L126.657 11.375H132.997V32H129.224V17.1406L126.856 32H123.153L120.645 17.1406V32H116.919ZM135.545 32V11.375H140.994C142.135 11.375 143.037 11.6289 143.701 12.1367C144.373 12.6445 144.854 13.3672 145.143 14.3047C145.432 15.2422 145.576 16.3594 145.576 17.6562C145.576 18.9062 145.455 19.9961 145.213 20.9258C144.971 21.8477 144.537 22.5625 143.912 23.0703C143.295 23.5781 142.416 23.832 141.276 23.832H139.6V32H135.545ZM139.6 20.1289H139.834C140.6 20.1289 141.069 19.9141 141.24 19.4844C141.412 19.0547 141.498 18.4219 141.498 17.5859C141.498 16.8047 141.412 16.2031 141.24 15.7812C141.076 15.3516 140.682 15.1367 140.057 15.1367H139.6V20.1289ZM146.695 32L148.687 11.375H155.683L157.64 32H153.738L153.445 28.6719H150.96L150.703 32H146.695ZM151.253 25.3789H153.128L152.226 14.8906H152.039L151.253 25.3789ZM159.626 32V11.375H163.868L165.766 21.2539V11.375H169.751V32H165.72L163.657 21.6875V32H159.626ZM174.795 32V25.2148L171.502 11.375H175.592L176.74 18.3594L177.889 11.375H181.967L178.686 25.2148V32H174.795ZM194.973 32.1875C193.09 32.1875 191.731 31.7188 190.895 30.7812C190.067 29.8438 189.653 28.3516 189.653 26.3047V24.2891H193.731V26.8672C193.731 27.3438 193.801 27.7188 193.942 27.9922C194.09 28.2578 194.344 28.3906 194.704 28.3906C195.079 28.3906 195.337 28.2812 195.477 28.0625C195.626 27.8438 195.7 27.4844 195.7 26.9844C195.7 26.3516 195.637 25.8242 195.512 25.4023C195.387 24.9727 195.169 24.5664 194.856 24.1836C194.551 23.793 194.126 23.3398 193.579 22.8242L191.727 21.0664C190.344 19.7617 189.653 18.2695 189.653 16.5898C189.653 14.832 190.059 13.4922 190.872 12.5703C191.692 11.6484 192.876 11.1875 194.422 11.1875C196.313 11.1875 197.653 11.6914 198.442 12.6992C199.239 13.707 199.637 15.2383 199.637 17.293H195.442V15.875C195.442 15.5938 195.36 15.375 195.196 15.2188C195.04 15.0625 194.825 14.9844 194.551 14.9844C194.223 14.9844 193.981 15.0781 193.825 15.2656C193.676 15.4453 193.602 15.6797 193.602 15.9688C193.602 16.2578 193.68 16.5703 193.837 16.9062C193.993 17.2422 194.301 17.6289 194.762 18.0664L197.141 20.3516C197.618 20.8047 198.055 21.2852 198.454 21.793C198.852 22.293 199.172 22.8789 199.415 23.5508C199.657 24.2148 199.778 25.0273 199.778 25.9883C199.778 27.9258 199.419 29.4453 198.7 30.5469C197.989 31.6406 196.747 32.1875 194.973 32.1875ZM201.881 32V11.375H210.131V15.3594H206.076V19.3789H209.967V23.2578H206.076V27.9805H210.4V32H201.881ZM211.929 32L213.921 11.375H220.917L222.874 32H218.972L218.679 28.6719H216.195L215.937 32H211.929ZM216.487 25.3789H218.362L217.46 14.8906H217.273L216.487 25.3789ZM224.86 32V11.375H231.188C232.243 11.375 233.04 11.6172 233.579 12.1016C234.118 12.5781 234.477 13.25 234.657 14.1172C234.844 14.9766 234.938 15.9883 234.938 17.1523C234.938 18.2773 234.793 19.1758 234.504 19.8477C234.223 20.5195 233.688 20.9844 232.899 21.2422C233.547 21.375 234 21.6992 234.258 22.2148C234.524 22.7227 234.657 23.3828 234.657 24.1953V32H230.59V23.9258C230.59 23.3242 230.465 22.9531 230.215 22.8125C229.973 22.6641 229.579 22.5898 229.032 22.5898V32H224.86ZM229.055 19.0156H230.051C230.622 19.0156 230.907 18.3945 230.907 17.1523C230.907 16.3477 230.844 15.8203 230.719 15.5703C230.594 15.3203 230.36 15.1953 230.016 15.1953H229.055V19.0156ZM241.822 32.1875C240.33 32.1875 239.127 31.7227 238.213 30.793C237.306 29.8633 236.853 28.5625 236.853 26.8906V17.375C236.853 15.375 237.248 13.8438 238.037 12.7812C238.834 11.7188 240.127 11.1875 241.916 11.1875C242.892 11.1875 243.76 11.3672 244.517 11.7266C245.283 12.0859 245.885 12.625 246.322 13.3438C246.76 14.0547 246.978 14.9531 246.978 16.0391V19.6016H242.877V16.5547C242.877 15.9375 242.799 15.5234 242.642 15.3125C242.486 15.0938 242.244 14.9844 241.916 14.9844C241.533 14.9844 241.275 15.125 241.142 15.4062C241.01 15.6797 240.943 16.0469 240.943 16.5078V26.832C240.943 27.4023 241.025 27.8047 241.189 28.0391C241.361 28.2734 241.603 28.3906 241.916 28.3906C242.267 28.3906 242.513 28.2461 242.654 27.957C242.802 27.668 242.877 27.293 242.877 26.832V23.1172H247.025V27.0195C247.025 28.832 246.568 30.1484 245.654 30.9688C244.74 31.7812 243.463 32.1875 241.822 32.1875ZM249.128 32V11.375H253.23V18.7461H255.175V11.375H259.276V32H255.175V22.6484H253.23V32H249.128ZM97.2211 60.1875C95.7289 60.1875 94.5258 59.7227 93.6117 58.793C92.7054 57.8633 92.2523 56.5625 92.2523 54.8906V45.375C92.2523 43.375 92.6469 41.8438 93.4359 40.7812C94.2328 39.7188 95.5258 39.1875 97.3148 39.1875C98.2914 39.1875 99.1586 39.3672 99.9164 39.7266C100.682 40.0859 101.284 40.625 101.721 41.3438C102.159 42.0547 102.377 42.9531 102.377 44.0391V47.6016H98.2758V44.5547C98.2758 43.9375 98.1976 43.5234 98.0414 43.3125C97.8851 43.0938 97.6429 42.9844 97.3148 42.9844C96.932 42.9844 96.6742 43.125 96.5414 43.4062C96.4086 43.6797 96.3422 44.0469 96.3422 44.5078V54.832C96.3422 55.4023 96.4242 55.8047 96.5883 56.0391C96.7601 56.2734 97.0023 56.3906 97.3148 56.3906C97.6664 56.3906 97.9125 56.2461 98.0531 55.957C98.2015 55.668 98.2758 55.293 98.2758 54.832V51.1172H102.424V55.0195C102.424 56.832 101.967 58.1484 101.053 58.9688C100.139 59.7812 98.8617 60.1875 97.2211 60.1875ZM107.023 60V53.2148L103.73 39.375H107.82L108.968 46.3594L110.117 39.375H114.195L110.914 53.2148V60H107.023ZM115.958 60V39.375H121.407C122.548 39.375 123.45 39.6289 124.114 40.1367C124.786 40.6445 125.267 41.3672 125.556 42.3047C125.845 43.2422 125.989 44.3594 125.989 45.6562C125.989 46.9062 125.868 47.9961 125.626 48.9258C125.384 49.8477 124.95 50.5625 124.325 51.0703C123.708 51.5781 122.829 51.832 121.688 51.832H120.013V60H115.958ZM120.013 48.1289H120.247C121.013 48.1289 121.481 47.9141 121.653 47.4844C121.825 47.0547 121.911 46.4219 121.911 45.5859C121.911 44.8047 121.825 44.2031 121.653 43.7812C121.489 43.3516 121.095 43.1367 120.47 43.1367H120.013V48.1289ZM128.022 60V39.375H134.35C135.405 39.375 136.201 39.6172 136.74 40.1016C137.28 40.5781 137.639 41.25 137.819 42.1172C138.006 42.9766 138.1 43.9883 138.1 45.1523C138.1 46.2773 137.955 47.1758 137.666 47.8477C137.385 48.5195 136.85 48.9844 136.061 49.2422C136.709 49.375 137.162 49.6992 137.42 50.2148C137.686 50.7227 137.819 51.3828 137.819 52.1953V60H133.752V51.9258C133.752 51.3242 133.627 50.9531 133.377 50.8125C133.135 50.6641 132.74 50.5898 132.194 50.5898V60H128.022ZM132.217 47.0156H133.213C133.783 47.0156 134.069 46.3945 134.069 45.1523C134.069 44.3477 134.006 43.8203 133.881 43.5703C133.756 43.3203 133.522 43.1953 133.178 43.1953H132.217V47.0156ZM144.949 60.1875C143.23 60.1875 141.964 59.707 141.152 58.7461C140.339 57.7773 139.933 56.3555 139.933 54.4805V39.375H143.941V54.3164C143.941 54.6602 143.96 54.9922 144 55.3125C144.039 55.625 144.128 55.8828 144.269 56.0859C144.41 56.2891 144.636 56.3906 144.949 56.3906C145.269 56.3906 145.5 56.293 145.64 56.0977C145.781 55.8945 145.867 55.6328 145.898 55.3125C145.937 54.9922 145.957 54.6602 145.957 54.3164V39.375H149.964V54.4805C149.964 56.3555 149.558 57.7773 148.746 58.7461C147.933 59.707 146.667 60.1875 144.949 60.1875ZM157.165 60.1875C155.282 60.1875 153.923 59.7188 153.087 58.7812C152.259 57.8438 151.845 56.3516 151.845 54.3047V52.2891H155.923V54.8672C155.923 55.3438 155.993 55.7188 156.134 55.9922C156.282 56.2578 156.536 56.3906 156.895 56.3906C157.27 56.3906 157.528 56.2812 157.669 56.0625C157.817 55.8438 157.891 55.4844 157.891 54.9844C157.891 54.3516 157.829 53.8242 157.704 53.4023C157.579 52.9727 157.36 52.5664 157.048 52.1836C156.743 51.793 156.317 51.3398 155.77 50.8242L153.919 49.0664C152.536 47.7617 151.845 46.2695 151.845 44.5898C151.845 42.832 152.251 41.4922 153.063 40.5703C153.884 39.6484 155.067 39.1875 156.614 39.1875C158.505 39.1875 159.845 39.6914 160.634 40.6992C161.43 41.707 161.829 43.2383 161.829 45.293H157.634V43.875C157.634 43.5938 157.552 43.375 157.387 43.2188C157.231 43.0625 157.016 42.9844 156.743 42.9844C156.415 42.9844 156.173 43.0781 156.016 43.2656C155.868 43.4453 155.794 43.6797 155.794 43.9688C155.794 44.2578 155.872 44.5703 156.028 44.9062C156.184 45.2422 156.493 45.6289 156.954 46.0664L159.333 48.3516C159.809 48.8047 160.247 49.2852 160.645 49.793C161.044 50.293 161.364 50.8789 161.606 51.5508C161.848 52.2148 161.97 53.0273 161.97 53.9883C161.97 55.9258 161.61 57.4453 160.891 58.5469C160.18 59.6406 158.938 60.1875 157.165 60.1875Z" fill="#41B883"/>
</svg>
